<svg xmlns="http://www.w3.org/2000/svg" viewBox="0 0 24 24" width="1em" height="1em" fill="currentColor" class="fill-green-s"><path fill-rule="evenodd" d="M12 22C6.477 22 2 17.523 2 12S6.477 2 12 2s10 4.477 10 10-4.477 10-10 10zM10.944 9.835a1.25 1.25 0 012.429.417c0 .253-.226.555-.68.857a4.039 4.039 0 01-.886.446 1 1 0 10.632 1.897c.358-.12.855-.34 1.364-.679.952-.635 1.57-1.458 1.57-2.52a3.25 3.25 0 00-6.316-1.081 1 1 0 001.887.663zM11.186 16v.135a1 1 0 102 0V16a1 1 0 10-2 0z" clip-rule="evenodd"></path></svg>